<?xml version="1.0" encoding="UTF-8" standalone="no"?>
<svg width="122px" height="31px" viewBox="0 0 122 31" version="1.1" xmlns="http://www.w3.org/2000/svg" xmlns:xlink="http://www.w3.org/1999/xlink" xmlns:sketch="http://www.bohemiancoding.com/sketch/ns">
    <!-- Generator: Sketch 3.0.4 (8053) - http://www.bohemiancoding.com/sketch -->
    <title>Walter Logo</title>
    <desc>Walter Logo</desc>
    <defs></defs>
    <g id="Page-1" stroke="none" stroke-width="1" fill="none" fill-rule="evenodd" sketch:type="MSPage">
        <g id="Desktop_01_Landingpage_LightImage" sketch:type="MSArtboardGroup" transform="translate(-357.000000, -1458.000000)">
            <g id="Footer-2" sketch:type="MSLayerGroup" transform="translate(0.000000, 1227.000000)">
                <g id="Walter-Logo" transform="translate(357.000000, 231.000000)" sketch:type="MSShapeGroup">
                    <path d="M48,21 C48.9741181,21 50,19.990203 50,19 L50,11 L48,11 L48,18 C48,18 47.3714965,19.188032 47,19 C46.5397944,19.188032 43.1515072,19.188032 43,19 L43,11 L41,11 L41,19 C40.8487248,19.188032 37.4604376,19.188032 37,19 C36.6287355,19.188032 36,18 36,18 L36,11 L34,11 L34,19 C34,19.990203 35.0261139,21 36,21 L42,21 L48,21 Z" id="Fill-1" fill="#0F1216"></path>
                    <path d="M18,14 L20,14 L20,22 L18,22 L18,14 Z" id="Fill-2" fill="#006599"></path>
                    <path d="M0,18 L16,18 L16,20 L0,20 L0,18 Z" id="Fill-3" fill="#0F1216"></path>
                    <path d="M22,0 L24,0 L24,25 L22,25 L22,0 Z" id="Fill-4" fill="#F6BC25"></path>
                    <path d="M26,6 L28,6 L28,31 L26,31 L26,6 Z" id="Fill-5" fill="#C51E46"></path>
                    <path d="M30,2 L32,2 L32,18 L30,18 L30,2 Z" id="Fill-6" fill="#317931"></path>
                    <path d="M78,11 L78,13 L84,13 L84,21 L86,21 L86,13 L92,13 L92,11 L78,11 Z" id="Fill-7" fill="#0F1216"></path>
                    <path d="M95,17 L95,18 C95,18 95.6735021,19.188032 96,19 C96.5227238,19.188032 107,19.188032 107,19 L107,21 L95,21 C94.053441,21 93,19.9972296 93,19 L93,15 L93,13 C93,12.0025437 94.053441,11 95,11 L107,11 L107,13 C107,12.8117413 96.5227238,12.8117413 96,13 C95.6735021,12.8117413 95,14 95,14 L95,15 L105,15 L105,17 L95,17 Z" id="Fill-8" fill="#0F1216"></path>
                    <path d="M71,19 C71.518002,19.188032 82,19.188032 82,19 L82,21 L70,21 C69.0399838,21 68,19.993603 68,19 L68,11 L70,11 L70,18 C70,18 70.6786961,19.188032 71,19 Z" id="Fill-9" fill="#0F1216"></path>
                    <path d="M120,14 C120,14.7373476 119.626786,15 118.875,15 L111,15 L111,13 L118.875,13 C119.632433,13 120,13.25785 120,14 L120,14 L120,14 Z M122,13 C122,12.0025437 120.943022,11 120,11 L109,11 L109,21 L111,21 L111,17 L119,17 L120,18 L120,21 L122,21 L122,18 C122,16.9851156 121.426178,16.4513172 121,16 C121.426178,16.4513172 122,15.8912255 122,15 L122,13 Z" id="Fill-10" fill="#0F1216"></path>
                    <path d="M64,16 L54,16 L54,13.75 C54,13.2727793 54.3592845,13 55.1111111,13 L62.8888889,13 C63.6412259,13 64,13.2727793 64,13.75 L64,16 L64,16 Z M59,11 L54,11 C53.0499822,11 52,12.0052637 52,13 L52,21 L54,21 L54,18 L64,18 L64,21 L66,21 L66,13 C66,12.0052637 64.9500178,11 64,11 L59,11 Z" id="Fill-11" fill="#0F1216"></path>
                </g>
            </g>
        </g>
    </g>
</svg>